<mxfile host="app.diagrams.net" modified="2022-03-25T07:29:09.090Z" agent="5.0 (Windows NT 6.1; Win64; x64) AppleWebKit/537.36 (KHTML, like Gecko) Chrome/99.0.4844.82 Safari/537.36" etag="jGp80C7rXVSXRsggNoZA" version="17.1.3" type="github">
  <diagram name="Page-1" id="13e1069c-82ec-6db2-03f1-153e76fe0fe0">
    <mxGraphModel dx="3334" dy="2109" grid="1" gridSize="10" guides="1" tooltips="1" connect="1" arrows="1" fold="1" page="1" pageScale="1" pageWidth="1100" pageHeight="850" background="none" math="0" shadow="0">
      <root>
        <mxCell id="0" />
        <mxCell id="1" parent="0" />
        <mxCell id="7baba1c4bc27f4b0-2" value="Консультант" style="shape=umlLifeline;perimeter=lifelinePerimeter;whiteSpace=wrap;html=1;container=1;collapsible=0;recursiveResize=0;outlineConnect=0;rounded=1;shadow=0;comic=0;labelBackgroundColor=none;strokeWidth=1;fontFamily=Verdana;fontSize=12;align=center;" parent="1" vertex="1">
          <mxGeometry x="380" y="80" width="150" height="200" as="geometry" />
        </mxCell>
        <mxCell id="7baba1c4bc27f4b0-10" value="" style="html=1;points=[];perimeter=orthogonalPerimeter;rounded=0;shadow=0;comic=0;labelBackgroundColor=none;strokeWidth=1;fontFamily=Verdana;fontSize=12;align=center;" parent="7baba1c4bc27f4b0-2" vertex="1">
          <mxGeometry x="70" y="100" width="10" height="80" as="geometry" />
        </mxCell>
        <mxCell id="7baba1c4bc27f4b0-3" value="Продавец" style="shape=umlLifeline;perimeter=lifelinePerimeter;whiteSpace=wrap;html=1;container=1;collapsible=0;recursiveResize=0;outlineConnect=0;rounded=1;shadow=0;comic=0;labelBackgroundColor=none;strokeWidth=1;fontFamily=Verdana;fontSize=12;align=center;" parent="1" vertex="1">
          <mxGeometry x="550" y="80" width="145" height="660" as="geometry" />
        </mxCell>
        <mxCell id="7baba1c4bc27f4b0-13" value="" style="html=1;points=[];perimeter=orthogonalPerimeter;rounded=0;shadow=0;comic=0;labelBackgroundColor=none;strokeWidth=1;fontFamily=Verdana;fontSize=12;align=center;" parent="7baba1c4bc27f4b0-3" vertex="1">
          <mxGeometry x="67.5" y="250" width="10" height="40" as="geometry" />
        </mxCell>
        <mxCell id="nSxy3bsyDPYAtTU6iTXX-43" value="" style="html=1;points=[];perimeter=orthogonalPerimeter;rounded=0;shadow=0;comic=0;labelBackgroundColor=none;strokeWidth=1;fontFamily=Verdana;fontSize=12;align=center;" parent="7baba1c4bc27f4b0-3" vertex="1">
          <mxGeometry x="67.5" y="460" width="10" height="60" as="geometry" />
        </mxCell>
        <mxCell id="nSxy3bsyDPYAtTU6iTXX-52" value="" style="html=1;points=[];perimeter=orthogonalPerimeter;rounded=0;shadow=0;comic=0;labelBackgroundColor=none;strokeWidth=1;fontFamily=Verdana;fontSize=12;align=center;" parent="7baba1c4bc27f4b0-3" vertex="1">
          <mxGeometry x="70" y="340" width="7.5" height="70" as="geometry" />
        </mxCell>
        <mxCell id="nSxy3bsyDPYAtTU6iTXX-53" value="" style="endArrow=classic;html=1;rounded=0;fontSize=10;edgeStyle=elbowEdgeStyle;endFill=1;exitX=1.14;exitY=1.002;exitDx=0;exitDy=0;exitPerimeter=0;entryX=0;entryY=0;entryDx=0;entryDy=0;entryPerimeter=0;" parent="7baba1c4bc27f4b0-3" source="7baba1c4bc27f4b0-13" target="nSxy3bsyDPYAtTU6iTXX-52" edge="1">
          <mxGeometry width="50" height="50" relative="1" as="geometry">
            <mxPoint x="78.76999999999998" y="280" as="sourcePoint" />
            <mxPoint x="100" y="340" as="targetPoint" />
            <Array as="points">
              <mxPoint x="103.76999999999998" y="300" />
              <mxPoint x="88.76999999999998" y="274" />
              <mxPoint x="78.76999999999998" y="310" />
              <mxPoint x="118.76999999999998" y="300" />
            </Array>
          </mxGeometry>
        </mxCell>
        <mxCell id="7baba1c4bc27f4b0-4" value="Мастер" style="shape=umlLifeline;perimeter=lifelinePerimeter;whiteSpace=wrap;html=1;container=1;collapsible=0;recursiveResize=0;outlineConnect=0;rounded=1;shadow=0;comic=0;labelBackgroundColor=none;strokeWidth=1;fontFamily=Verdana;fontSize=12;align=center;" parent="1" vertex="1">
          <mxGeometry x="720" y="80" width="100" height="930" as="geometry" />
        </mxCell>
        <mxCell id="nSxy3bsyDPYAtTU6iTXX-74" value="" style="html=1;points=[];perimeter=orthogonalPerimeter;rounded=0;shadow=0;comic=0;labelBackgroundColor=none;strokeWidth=1;fontFamily=Verdana;fontSize=12;align=center;" parent="7baba1c4bc27f4b0-4" vertex="1">
          <mxGeometry x="45" y="690" width="10" as="geometry" />
        </mxCell>
        <mxCell id="nSxy3bsyDPYAtTU6iTXX-75" value="" style="html=1;points=[];perimeter=orthogonalPerimeter;rounded=0;shadow=0;comic=0;labelBackgroundColor=none;strokeWidth=1;fontFamily=Verdana;fontSize=12;align=center;" parent="7baba1c4bc27f4b0-4" vertex="1">
          <mxGeometry x="45" y="660" width="10" height="50" as="geometry" />
        </mxCell>
        <mxCell id="KT-1wL77twykIDQ50p4O-12" value="" style="html=1;points=[];perimeter=orthogonalPerimeter;rounded=0;shadow=0;comic=0;labelBackgroundColor=none;strokeWidth=1;fontFamily=Verdana;fontSize=12;align=center;" parent="7baba1c4bc27f4b0-4" vertex="1">
          <mxGeometry x="45" y="760" width="10" height="50" as="geometry" />
        </mxCell>
        <mxCell id="KT-1wL77twykIDQ50p4O-13" value="" style="endArrow=classic;html=1;rounded=0;fontSize=10;edgeStyle=elbowEdgeStyle;endFill=1;exitX=1.14;exitY=1.002;exitDx=0;exitDy=0;exitPerimeter=0;" parent="7baba1c4bc27f4b0-4" edge="1">
          <mxGeometry width="50" height="50" relative="1" as="geometry">
            <mxPoint x="53.90000000000009" y="710" as="sourcePoint" />
            <mxPoint x="50" y="760" as="targetPoint" />
            <Array as="points">
              <mxPoint x="78.76999999999998" y="719.9200000000001" />
              <mxPoint x="63.76999999999998" y="693.9200000000001" />
              <mxPoint x="53.76999999999998" y="729.9200000000001" />
              <mxPoint x="93.76999999999998" y="719.9200000000001" />
            </Array>
          </mxGeometry>
        </mxCell>
        <mxCell id="nSxy3bsyDPYAtTU6iTXX-22" value="" style="html=1;points=[];perimeter=orthogonalPerimeter;rounded=0;shadow=0;comic=0;labelBackgroundColor=none;strokeWidth=1;fontFamily=Verdana;fontSize=12;align=center;" parent="7baba1c4bc27f4b0-4" vertex="1">
          <mxGeometry x="45" y="840" width="10" height="90" as="geometry" />
        </mxCell>
        <mxCell id="KT-1wL77twykIDQ50p4O-16" value="" style="endArrow=open;html=1;rounded=0;fontSize=10;edgeStyle=elbowEdgeStyle;endFill=0;exitX=0.334;exitY=0.993;exitDx=0;exitDy=0;exitPerimeter=0;entryX=0.885;entryY=0.005;entryDx=0;entryDy=0;entryPerimeter=0;dashed=1;" parent="7baba1c4bc27f4b0-4" source="KT-1wL77twykIDQ50p4O-12" target="nSxy3bsyDPYAtTU6iTXX-22" edge="1">
          <mxGeometry width="50" height="50" relative="1" as="geometry">
            <mxPoint x="58.90000000000009" y="810" as="sourcePoint" />
            <mxPoint x="55" y="860" as="targetPoint" />
            <Array as="points">
              <mxPoint x="83.76999999999998" y="819.9200000000001" />
              <mxPoint x="68.76999999999998" y="793.9200000000001" />
              <mxPoint x="58.76999999999998" y="829.9200000000001" />
              <mxPoint x="98.76999999999998" y="819.9200000000001" />
            </Array>
          </mxGeometry>
        </mxCell>
        <mxCell id="7baba1c4bc27f4b0-5" value="Логист" style="shape=umlLifeline;perimeter=lifelinePerimeter;whiteSpace=wrap;html=1;container=1;collapsible=0;recursiveResize=0;outlineConnect=0;rounded=1;shadow=0;comic=0;labelBackgroundColor=none;strokeWidth=1;fontFamily=Verdana;fontSize=12;align=center;" parent="1" vertex="1">
          <mxGeometry x="890" y="80" width="100" height="1120" as="geometry" />
        </mxCell>
        <mxCell id="7baba1c4bc27f4b0-19" value="" style="html=1;points=[];perimeter=orthogonalPerimeter;rounded=0;shadow=0;comic=0;labelBackgroundColor=none;strokeWidth=1;fontFamily=Verdana;fontSize=12;align=center;" parent="7baba1c4bc27f4b0-5" vertex="1">
          <mxGeometry x="45" y="930" width="10" height="60" as="geometry" />
        </mxCell>
        <mxCell id="KT-1wL77twykIDQ50p4O-21" value="" style="html=1;points=[];perimeter=orthogonalPerimeter;rounded=0;shadow=0;comic=0;labelBackgroundColor=none;strokeWidth=1;fontFamily=Verdana;fontSize=12;align=center;" parent="7baba1c4bc27f4b0-5" vertex="1">
          <mxGeometry x="45" y="1029.81" width="10" height="90.19" as="geometry" />
        </mxCell>
        <mxCell id="KT-1wL77twykIDQ50p4O-22" value="" style="endArrow=open;html=1;rounded=0;fontSize=10;edgeStyle=elbowEdgeStyle;endFill=0;exitX=0.334;exitY=0.993;exitDx=0;exitDy=0;exitPerimeter=0;dashed=1;" parent="7baba1c4bc27f4b0-5" edge="1">
          <mxGeometry width="50" height="50" relative="1" as="geometry">
            <mxPoint x="54.999999999999886" y="990" as="sourcePoint" />
            <mxPoint x="50" y="1029.81" as="targetPoint" />
            <Array as="points">
              <mxPoint x="90.42999999999995" y="1000.27" />
              <mxPoint x="75.42999999999995" y="974.27" />
              <mxPoint x="65.42999999999995" y="1010.27" />
              <mxPoint x="105.42999999999995" y="1000.27" />
            </Array>
          </mxGeometry>
        </mxCell>
        <mxCell id="7baba1c4bc27f4b0-6" value="Курьер" style="shape=umlLifeline;perimeter=lifelinePerimeter;whiteSpace=wrap;html=1;container=1;collapsible=0;recursiveResize=0;outlineConnect=0;rounded=1;shadow=0;comic=0;labelBackgroundColor=none;strokeWidth=1;fontFamily=Verdana;fontSize=12;align=center;" parent="1" vertex="1">
          <mxGeometry x="1100" y="80" width="100" height="1310" as="geometry" />
        </mxCell>
        <mxCell id="KT-1wL77twykIDQ50p4O-25" value="" style="html=1;points=[];perimeter=orthogonalPerimeter;rounded=0;shadow=0;comic=0;labelBackgroundColor=none;strokeWidth=1;fontFamily=Verdana;fontSize=12;align=center;" parent="7baba1c4bc27f4b0-6" vertex="1">
          <mxGeometry x="45" y="1120" width="10" height="70.19" as="geometry" />
        </mxCell>
        <mxCell id="7baba1c4bc27f4b0-8" value="Покупатель" style="shape=umlLifeline;perimeter=lifelinePerimeter;whiteSpace=wrap;html=1;container=1;collapsible=0;recursiveResize=0;outlineConnect=0;rounded=1;shadow=0;comic=0;labelBackgroundColor=none;strokeWidth=1;fontFamily=Verdana;fontSize=12;align=center;" parent="1" vertex="1">
          <mxGeometry x="100" y="80" width="165" height="600" as="geometry" />
        </mxCell>
        <mxCell id="7baba1c4bc27f4b0-9" value="" style="html=1;points=[];perimeter=orthogonalPerimeter;rounded=0;shadow=0;comic=0;labelBackgroundColor=none;strokeWidth=1;fontFamily=Verdana;fontSize=12;align=center;" parent="7baba1c4bc27f4b0-8" vertex="1">
          <mxGeometry x="77.5" y="410" width="10" height="50" as="geometry" />
        </mxCell>
        <mxCell id="nSxy3bsyDPYAtTU6iTXX-5" value="да" style="text;html=1;strokeColor=none;fillColor=none;align=center;verticalAlign=middle;whiteSpace=wrap;rounded=0;" parent="7baba1c4bc27f4b0-8" vertex="1">
          <mxGeometry x="87.5" y="80" width="60" height="30" as="geometry" />
        </mxCell>
        <mxCell id="nSxy3bsyDPYAtTU6iTXX-32" value="" style="html=1;points=[];perimeter=orthogonalPerimeter;rounded=0;shadow=0;comic=0;labelBackgroundColor=none;strokeWidth=1;fontFamily=Verdana;fontSize=12;align=center;" parent="7baba1c4bc27f4b0-8" vertex="1">
          <mxGeometry x="77.5" y="180" width="10" height="70" as="geometry" />
        </mxCell>
        <mxCell id="nSxy3bsyDPYAtTU6iTXX-38" value="нет" style="text;html=1;align=center;verticalAlign=middle;resizable=0;points=[];autosize=1;strokeColor=none;fillColor=none;fontSize=11;" parent="7baba1c4bc27f4b0-8" vertex="1">
          <mxGeometry x="135" y="130" width="30" height="20" as="geometry" />
        </mxCell>
        <mxCell id="nSxy3bsyDPYAtTU6iTXX-46" value="" style="html=1;points=[];perimeter=orthogonalPerimeter;rounded=0;shadow=0;comic=0;labelBackgroundColor=none;strokeWidth=1;fontFamily=Verdana;fontSize=12;align=center;" parent="7baba1c4bc27f4b0-8" vertex="1">
          <mxGeometry x="77.5" y="520" width="10" height="80" as="geometry" />
        </mxCell>
        <mxCell id="nSxy3bsyDPYAtTU6iTXX-3" value="" style="html=1;points=[];perimeter=orthogonalPerimeter;rounded=0;shadow=0;comic=0;labelBackgroundColor=none;strokeWidth=1;fontFamily=Verdana;fontSize=12;align=center;" parent="7baba1c4bc27f4b0-8" vertex="1">
          <mxGeometry x="77.5" y="80" width="10" height="20" as="geometry" />
        </mxCell>
        <mxCell id="_RV6bXpBdhq5zvl98dlv-6" value="" style="endArrow=open;html=1;rounded=0;fontSize=11;exitX=0.355;exitY=1.009;exitDx=0;exitDy=0;exitPerimeter=0;endFill=0;dashed=1;" parent="1" source="7baba1c4bc27f4b0-10" edge="1">
          <mxGeometry width="50" height="50" relative="1" as="geometry">
            <mxPoint x="320" y="320" as="sourcePoint" />
            <mxPoint x="180" y="260" as="targetPoint" />
          </mxGeometry>
        </mxCell>
        <mxCell id="_RV6bXpBdhq5zvl98dlv-10" value="" style="html=1;verticalAlign=bottom;endArrow=block;rounded=0;fontSize=11;entryX=0.17;entryY=0.008;entryDx=0;entryDy=0;entryPerimeter=0;exitX=0.42;exitY=1.004;exitDx=0;exitDy=0;exitPerimeter=0;" parent="1" source="nSxy3bsyDPYAtTU6iTXX-32" target="7baba1c4bc27f4b0-13" edge="1">
          <mxGeometry width="80" relative="1" as="geometry">
            <mxPoint x="190" y="306" as="sourcePoint" />
            <mxPoint x="612.5" y="320" as="targetPoint" />
            <Array as="points" />
          </mxGeometry>
        </mxCell>
        <mxCell id="_RV6bXpBdhq5zvl98dlv-11" value="&lt;span style=&quot;font-size: 12px ; background-color: rgb(248 , 249 , 250)&quot;&gt;&amp;nbsp;&quot;информация о скидке&quot;&lt;/span&gt;" style="html=1;verticalAlign=bottom;endArrow=classic;rounded=0;fontSize=11;endFill=1;" parent="1" source="7baba1c4bc27f4b0-3" edge="1">
          <mxGeometry width="80" relative="1" as="geometry">
            <mxPoint x="620" y="410" as="sourcePoint" />
            <mxPoint x="180" y="490" as="targetPoint" />
            <Array as="points">
              <mxPoint x="560" y="490" />
            </Array>
          </mxGeometry>
        </mxCell>
        <mxCell id="_RV6bXpBdhq5zvl98dlv-44" value="" style="html=1;verticalAlign=bottom;endArrow=open;rounded=0;fontSize=11;strokeWidth=1;startArrow=none;exitX=0.419;exitY=1.01;exitDx=0;exitDy=0;exitPerimeter=0;dashed=1;endFill=0;" parent="1" source="nSxy3bsyDPYAtTU6iTXX-71" target="7baba1c4bc27f4b0-4" edge="1">
          <mxGeometry width="80" relative="1" as="geometry">
            <mxPoint x="700" y="700" as="sourcePoint" />
            <mxPoint x="765" y="690" as="targetPoint" />
            <Array as="points">
              <mxPoint x="730" y="741" />
            </Array>
          </mxGeometry>
        </mxCell>
        <mxCell id="_RV6bXpBdhq5zvl98dlv-2" value="&lt;span style=&quot;font-family: &amp;#34;helvetica&amp;#34;&quot;&gt;&lt;font style=&quot;font-size: 10px&quot;&gt;[нужна ли помощь консультанта]&lt;/font&gt;&lt;/span&gt;" style="text;html=1;strokeColor=none;fillColor=none;align=center;verticalAlign=middle;whiteSpace=wrap;rounded=0;fontSize=11;" parent="1" vertex="1">
          <mxGeometry x="120" y="130" width="120" height="30" as="geometry" />
        </mxCell>
        <mxCell id="nSxy3bsyDPYAtTU6iTXX-8" value="" style="html=1;verticalAlign=bottom;endArrow=classic;rounded=0;endFill=1;" parent="1" edge="1">
          <mxGeometry width="80" relative="1" as="geometry">
            <mxPoint x="180" y="180" as="sourcePoint" />
            <mxPoint x="450" y="180" as="targetPoint" />
          </mxGeometry>
        </mxCell>
        <mxCell id="nSxy3bsyDPYAtTU6iTXX-13" value="&lt;span style=&quot;font-size: 12px ; background-color: rgb(248 , 249 , 250)&quot;&gt;&quot;стоимость заказа&quot;&lt;/span&gt;" style="html=1;verticalAlign=bottom;endArrow=classic;rounded=0;fontSize=11;endFill=1;exitX=0.541;exitY=1.01;exitDx=0;exitDy=0;exitPerimeter=0;" parent="1" source="nSxy3bsyDPYAtTU6iTXX-43" target="7baba1c4bc27f4b0-8" edge="1">
          <mxGeometry width="80" relative="1" as="geometry">
            <mxPoint x="621.69" y="649.28" as="sourcePoint" />
            <mxPoint x="182.04761904761904" y="650.04" as="targetPoint" />
            <Array as="points" />
          </mxGeometry>
        </mxCell>
        <mxCell id="nSxy3bsyDPYAtTU6iTXX-20" value="&quot;return&quot;" style="text;html=1;strokeColor=none;fillColor=none;align=center;verticalAlign=middle;whiteSpace=wrap;rounded=0;fontSize=11;" parent="1" vertex="1">
          <mxGeometry x="310" y="240" width="60" height="30" as="geometry" />
        </mxCell>
        <mxCell id="nSxy3bsyDPYAtTU6iTXX-72" value="&quot;return&quot;" style="html=1;verticalAlign=bottom;endArrow=block;rounded=0;dashed=1;fontSize=9;elbow=vertical;exitX=0.602;exitY=0.988;exitDx=0;exitDy=0;exitPerimeter=0;" parent="1" source="nSxy3bsyDPYAtTU6iTXX-46" edge="1">
          <mxGeometry width="80" relative="1" as="geometry">
            <mxPoint x="410" y="780" as="sourcePoint" />
            <mxPoint x="623" y="680" as="targetPoint" />
          </mxGeometry>
        </mxCell>
        <mxCell id="nSxy3bsyDPYAtTU6iTXX-71" value="" style="html=1;points=[];perimeter=orthogonalPerimeter;rounded=0;shadow=0;comic=0;labelBackgroundColor=none;strokeWidth=1;fontFamily=Verdana;fontSize=12;align=center;" parent="1" vertex="1">
          <mxGeometry x="617.5" y="680" width="10" height="60" as="geometry" />
        </mxCell>
        <mxCell id="nSxy3bsyDPYAtTU6iTXX-73" value="" style="html=1;verticalAlign=bottom;endArrow=none;rounded=0;fontSize=11;strokeWidth=1;" parent="1" source="7baba1c4bc27f4b0-3" target="nSxy3bsyDPYAtTU6iTXX-71" edge="1">
          <mxGeometry width="80" relative="1" as="geometry">
            <mxPoint x="622.310344827586" y="700" as="sourcePoint" />
            <mxPoint x="769.5" y="700" as="targetPoint" />
            <Array as="points" />
          </mxGeometry>
        </mxCell>
        <mxCell id="_RV6bXpBdhq5zvl98dlv-7" value="" style="shape=umlDestroy;whiteSpace=wrap;html=1;strokeWidth=3;fontSize=11;" parent="1" vertex="1">
          <mxGeometry x="440" y="270" width="30" height="30" as="geometry" />
        </mxCell>
        <mxCell id="KT-1wL77twykIDQ50p4O-1" value="" style="endArrow=open;html=1;rounded=0;fontSize=10;edgeStyle=elbowEdgeStyle;dashed=1;endFill=0;" parent="1" edge="1">
          <mxGeometry width="50" height="50" relative="1" as="geometry">
            <mxPoint x="190" y="180" as="sourcePoint" />
            <mxPoint x="180" y="260" as="targetPoint" />
            <Array as="points">
              <mxPoint x="266.37" y="289.96" />
              <mxPoint x="251.37" y="263.96" />
              <mxPoint x="241.37" y="299.96" />
              <mxPoint x="281.37" y="289.96" />
            </Array>
          </mxGeometry>
        </mxCell>
        <mxCell id="KT-1wL77twykIDQ50p4O-3" value="&quot;созданный проект&quot;" style="text;html=1;strokeColor=none;fillColor=none;align=center;verticalAlign=middle;whiteSpace=wrap;rounded=0;" parent="1" vertex="1">
          <mxGeometry x="310" y="300" width="130" height="30" as="geometry" />
        </mxCell>
        <mxCell id="KT-1wL77twykIDQ50p4O-4" value="&quot;оформленный заказ&quot;" style="text;html=1;strokeColor=none;fillColor=none;align=center;verticalAlign=middle;whiteSpace=wrap;rounded=0;" parent="1" vertex="1">
          <mxGeometry x="660" y="380" width="90" height="30" as="geometry" />
        </mxCell>
        <mxCell id="KT-1wL77twykIDQ50p4O-7" value="" style="endArrow=open;html=1;rounded=0;dashed=1;endFill=0;" parent="1" source="7baba1c4bc27f4b0-8" edge="1">
          <mxGeometry width="50" height="50" relative="1" as="geometry">
            <mxPoint x="430" y="540" as="sourcePoint" />
            <mxPoint x="620" y="540" as="targetPoint" />
          </mxGeometry>
        </mxCell>
        <mxCell id="KT-1wL77twykIDQ50p4O-8" value="&quot;return&quot;" style="text;html=1;strokeColor=none;fillColor=none;align=center;verticalAlign=middle;whiteSpace=wrap;rounded=0;fontSize=11;" parent="1" vertex="1">
          <mxGeometry x="360" y="520" width="60" height="30" as="geometry" />
        </mxCell>
        <mxCell id="KT-1wL77twykIDQ50p4O-11" value="&quot;return&quot;" style="text;html=1;align=center;verticalAlign=middle;resizable=0;points=[];autosize=1;strokeColor=none;fillColor=none;" parent="1" vertex="1">
          <mxGeometry x="660" y="720" width="60" height="20" as="geometry" />
        </mxCell>
        <mxCell id="KT-1wL77twykIDQ50p4O-15" value="&quot;детали заказа&quot;" style="text;html=1;strokeColor=none;fillColor=none;align=center;verticalAlign=middle;whiteSpace=wrap;rounded=0;" parent="1" vertex="1">
          <mxGeometry x="800" y="800" width="90" height="30" as="geometry" />
        </mxCell>
        <mxCell id="KT-1wL77twykIDQ50p4O-17" value="&quot;return&quot;" style="text;html=1;align=center;verticalAlign=middle;resizable=0;points=[];autosize=1;strokeColor=none;fillColor=none;" parent="1" vertex="1">
          <mxGeometry x="805" y="890" width="60" height="20" as="geometry" />
        </mxCell>
        <mxCell id="KT-1wL77twykIDQ50p4O-19" value="&lt;span style=&quot;font-size: 12px ; background-color: rgb(248 , 249 , 250)&quot;&gt;&quot;статус заказа&quot;&lt;/span&gt;" style="html=1;verticalAlign=bottom;endArrow=classic;rounded=0;fontSize=11;endFill=1;" parent="1" target="7baba1c4bc27f4b0-5" edge="1">
          <mxGeometry width="80" relative="1" as="geometry">
            <mxPoint x="770" y="1010" as="sourcePoint" />
            <mxPoint x="870" y="1060" as="targetPoint" />
            <Array as="points" />
          </mxGeometry>
        </mxCell>
        <mxCell id="KT-1wL77twykIDQ50p4O-23" value="&quot;return&quot;" style="text;html=1;align=center;verticalAlign=middle;resizable=0;points=[];autosize=1;strokeColor=none;fillColor=none;" parent="1" vertex="1">
          <mxGeometry x="980" y="1090" width="60" height="20" as="geometry" />
        </mxCell>
        <mxCell id="KT-1wL77twykIDQ50p4O-26" value="&lt;span style=&quot;font-size: 12px ; background-color: rgb(248 , 249 , 250)&quot;&gt;&quot;данные заказа&quot;&lt;/span&gt;" style="html=1;verticalAlign=bottom;endArrow=classic;rounded=0;fontSize=11;endFill=1;exitX=0.389;exitY=1.004;exitDx=0;exitDy=0;exitPerimeter=0;entryX=0.409;entryY=0.004;entryDx=0;entryDy=0;entryPerimeter=0;" parent="1" source="KT-1wL77twykIDQ50p4O-21" target="KT-1wL77twykIDQ50p4O-25" edge="1">
          <mxGeometry width="80" relative="1" as="geometry">
            <mxPoint x="950.0000000000002" y="1190" as="sourcePoint" />
            <mxPoint x="1119.5" y="1190" as="targetPoint" />
            <Array as="points" />
          </mxGeometry>
        </mxCell>
        <mxCell id="KT-1wL77twykIDQ50p4O-28" value="" style="html=1;points=[];perimeter=orthogonalPerimeter;rounded=0;shadow=0;comic=0;labelBackgroundColor=none;strokeWidth=1;fontFamily=Verdana;fontSize=12;align=center;" parent="1" vertex="1">
          <mxGeometry x="1145" y="1320" width="10" height="70.19" as="geometry" />
        </mxCell>
        <mxCell id="KT-1wL77twykIDQ50p4O-31" value="&quot;информация для доставки&quot;" style="text;html=1;strokeColor=none;fillColor=none;align=center;verticalAlign=middle;whiteSpace=wrap;rounded=0;" parent="1" vertex="1">
          <mxGeometry x="1180" y="1280" width="90" height="30" as="geometry" />
        </mxCell>
        <mxCell id="KT-1wL77twykIDQ50p4O-30" value="" style="endArrow=classic;html=1;rounded=0;fontSize=10;edgeStyle=elbowEdgeStyle;endFill=1;exitX=1.14;exitY=1.002;exitDx=0;exitDy=0;exitPerimeter=0;entryX=0.229;entryY=0.001;entryDx=0;entryDy=0;entryPerimeter=0;" parent="1" target="KT-1wL77twykIDQ50p4O-28" edge="1">
          <mxGeometry width="50" height="50" relative="1" as="geometry">
            <mxPoint x="1153.9" y="1270" as="sourcePoint" />
            <mxPoint x="1150" y="1320" as="targetPoint" />
            <Array as="points">
              <mxPoint x="1178.77" y="1279.92" />
              <mxPoint x="1163.77" y="1253.92" />
              <mxPoint x="1153.77" y="1289.92" />
              <mxPoint x="1193.77" y="1279.92" />
            </Array>
          </mxGeometry>
        </mxCell>
        <mxCell id="KT-1wL77twykIDQ50p4O-32" value="&quot;return&quot;" style="text;html=1;strokeColor=none;fillColor=none;align=center;verticalAlign=middle;whiteSpace=wrap;rounded=0;fontSize=11;rotation=90;" parent="1" vertex="1">
          <mxGeometry x="250" y="200" width="60" height="30" as="geometry" />
        </mxCell>
        <mxCell id="KT-1wL77twykIDQ50p4O-33" value="&quot;пожелания покупателя&quot;" style="text;html=1;strokeColor=none;fillColor=none;align=center;verticalAlign=middle;whiteSpace=wrap;rounded=0;" parent="1" vertex="1">
          <mxGeometry x="280" y="150" width="90" height="30" as="geometry" />
        </mxCell>
        <mxCell id="ehExk4k6lZcWpflBo5ng-2" value="" style="rounded=0;whiteSpace=wrap;html=1;" vertex="1" parent="1">
          <mxGeometry x="-10" y="220" width="120" height="60" as="geometry" />
        </mxCell>
        <mxCell id="ehExk4k6lZcWpflBo5ng-3" value="&lt;b style=&quot;font-size: 12px ; font-family: &amp;#34;helvetica&amp;#34;&quot;&gt;Создать проект&lt;/b&gt;" style="text;html=1;strokeColor=none;fillColor=none;align=center;verticalAlign=middle;whiteSpace=wrap;rounded=0;fontSize=7;" vertex="1" parent="1">
          <mxGeometry y="235" width="100" height="30" as="geometry" />
        </mxCell>
        <mxCell id="ehExk4k6lZcWpflBo5ng-4" value="" style="rounded=0;whiteSpace=wrap;html=1;" vertex="1" parent="1">
          <mxGeometry x="630" y="270" width="120" height="60" as="geometry" />
        </mxCell>
        <mxCell id="ehExk4k6lZcWpflBo5ng-5" value="&lt;b style=&quot;font-size: 11px&quot;&gt;&lt;span style=&quot;font-size: 12px&quot;&gt;Оформить&amp;nbsp;&lt;/span&gt;&lt;span style=&quot;font-size: 12px&quot;&gt;заказ&lt;/span&gt;&lt;/b&gt;" style="text;html=1;strokeColor=none;fillColor=none;align=center;verticalAlign=middle;whiteSpace=wrap;rounded=0;fontSize=7;" vertex="1" parent="1">
          <mxGeometry x="640" y="285" width="100" height="30" as="geometry" />
        </mxCell>
        <mxCell id="ehExk4k6lZcWpflBo5ng-6" value="" style="rounded=0;whiteSpace=wrap;html=1;" vertex="1" parent="1">
          <mxGeometry x="645" y="480" width="120" height="60" as="geometry" />
        </mxCell>
        <mxCell id="ehExk4k6lZcWpflBo5ng-7" value="&lt;b style=&quot;font-size: 12px&quot;&gt;Сообщить о скидке&lt;/b&gt;" style="text;html=1;strokeColor=none;fillColor=none;align=center;verticalAlign=middle;whiteSpace=wrap;rounded=0;fontSize=7;" vertex="1" parent="1">
          <mxGeometry x="655" y="495" width="100" height="30" as="geometry" />
        </mxCell>
        <mxCell id="ehExk4k6lZcWpflBo5ng-8" value="" style="rounded=0;whiteSpace=wrap;html=1;" vertex="1" parent="1">
          <mxGeometry x="645" y="590" width="120" height="60" as="geometry" />
        </mxCell>
        <mxCell id="ehExk4k6lZcWpflBo5ng-9" value="&lt;b style=&quot;font-size: 12px&quot;&gt;Рассчитать стоимость заказа&lt;/b&gt;" style="text;html=1;strokeColor=none;fillColor=none;align=center;verticalAlign=middle;whiteSpace=wrap;rounded=0;fontSize=7;" vertex="1" parent="1">
          <mxGeometry x="655" y="605" width="100" height="30" as="geometry" />
        </mxCell>
        <mxCell id="ehExk4k6lZcWpflBo5ng-10" value="" style="rounded=0;whiteSpace=wrap;html=1;" vertex="1" parent="1">
          <mxGeometry x="450" y="705" width="120" height="60" as="geometry" />
        </mxCell>
        <mxCell id="ehExk4k6lZcWpflBo5ng-11" value="&lt;b style=&quot;font-size: 11px&quot;&gt;Заказать изготовление&lt;br style=&quot;padding: 0px ; margin: 0px&quot;&gt;проекта&lt;/b&gt;" style="text;html=1;strokeColor=none;fillColor=none;align=center;verticalAlign=middle;whiteSpace=wrap;rounded=0;fontSize=7;" vertex="1" parent="1">
          <mxGeometry x="460" y="720" width="100" height="30" as="geometry" />
        </mxCell>
        <mxCell id="ehExk4k6lZcWpflBo5ng-12" value="" style="rounded=0;whiteSpace=wrap;html=1;" vertex="1" parent="1">
          <mxGeometry x="795" y="680" width="120" height="60" as="geometry" />
        </mxCell>
        <mxCell id="ehExk4k6lZcWpflBo5ng-13" value="&lt;b&gt;&lt;font style=&quot;font-size: 11px&quot;&gt;Получить детали заказа&lt;/font&gt;&lt;/b&gt;" style="text;html=1;strokeColor=none;fillColor=none;align=center;verticalAlign=middle;whiteSpace=wrap;rounded=0;fontSize=7;" vertex="1" parent="1">
          <mxGeometry x="805" y="695" width="100" height="30" as="geometry" />
        </mxCell>
        <mxCell id="ehExk4k6lZcWpflBo5ng-14" value="" style="rounded=0;whiteSpace=wrap;html=1;" vertex="1" parent="1">
          <mxGeometry x="580" y="830" width="120" height="60" as="geometry" />
        </mxCell>
        <mxCell id="ehExk4k6lZcWpflBo5ng-15" value="&lt;b style=&quot;font-size: 10px&quot;&gt;&lt;font style=&quot;font-size: 11px&quot;&gt;Изготовить заказ&lt;/font&gt;&lt;/b&gt;" style="text;html=1;strokeColor=none;fillColor=none;align=center;verticalAlign=middle;whiteSpace=wrap;rounded=0;fontSize=7;" vertex="1" parent="1">
          <mxGeometry x="590" y="845" width="100" height="30" as="geometry" />
        </mxCell>
        <mxCell id="ehExk4k6lZcWpflBo5ng-16" value="" style="rounded=0;whiteSpace=wrap;html=1;" vertex="1" parent="1">
          <mxGeometry x="600" y="935" width="120" height="60" as="geometry" />
        </mxCell>
        <mxCell id="ehExk4k6lZcWpflBo5ng-17" value="&lt;b style=&quot;font-size: 10px&quot;&gt;&lt;font style=&quot;font-size: 11px&quot;&gt;Сообщить о готовности заказа&lt;/font&gt;&lt;/b&gt;" style="text;html=1;strokeColor=none;fillColor=none;align=center;verticalAlign=middle;whiteSpace=wrap;rounded=0;fontSize=7;" vertex="1" parent="1">
          <mxGeometry x="610" y="950" width="100" height="30" as="geometry" />
        </mxCell>
        <mxCell id="ehExk4k6lZcWpflBo5ng-18" value="" style="rounded=0;whiteSpace=wrap;html=1;" vertex="1" parent="1">
          <mxGeometry x="1000" y="1010" width="120" height="60" as="geometry" />
        </mxCell>
        <mxCell id="ehExk4k6lZcWpflBo5ng-19" value="&lt;b style=&quot;font-size: 10px&quot;&gt;&lt;font style=&quot;font-size: 11px&quot;&gt;Проверить заказ&lt;/font&gt;&lt;/b&gt;" style="text;html=1;strokeColor=none;fillColor=none;align=center;verticalAlign=middle;whiteSpace=wrap;rounded=0;fontSize=7;" vertex="1" parent="1">
          <mxGeometry x="1010" y="1025" width="100" height="30" as="geometry" />
        </mxCell>
        <mxCell id="ehExk4k6lZcWpflBo5ng-20" value="" style="rounded=0;whiteSpace=wrap;html=1;" vertex="1" parent="1">
          <mxGeometry x="755" y="1130" width="120" height="60" as="geometry" />
        </mxCell>
        <mxCell id="ehExk4k6lZcWpflBo5ng-21" value="&lt;b style=&quot;font-size: 10px&quot;&gt;&lt;font style=&quot;font-size: 11px&quot;&gt;Сообщить данные заказа курьеру&lt;/font&gt;&lt;/b&gt;" style="text;html=1;strokeColor=none;fillColor=none;align=center;verticalAlign=middle;whiteSpace=wrap;rounded=0;fontSize=7;" vertex="1" parent="1">
          <mxGeometry x="765" y="1145" width="100" height="30" as="geometry" />
        </mxCell>
        <mxCell id="ehExk4k6lZcWpflBo5ng-22" value="" style="rounded=0;whiteSpace=wrap;html=1;" vertex="1" parent="1">
          <mxGeometry x="1270" y="1205" width="120" height="60" as="geometry" />
        </mxCell>
        <mxCell id="ehExk4k6lZcWpflBo5ng-23" value="&lt;b style=&quot;font-size: 10px&quot;&gt;&lt;font style=&quot;font-size: 11px&quot;&gt;Проверить информацию о доставке&lt;/font&gt;&lt;/b&gt;" style="text;html=1;strokeColor=none;fillColor=none;align=center;verticalAlign=middle;whiteSpace=wrap;rounded=0;fontSize=7;" vertex="1" parent="1">
          <mxGeometry x="1280" y="1220" width="100" height="30" as="geometry" />
        </mxCell>
        <mxCell id="ehExk4k6lZcWpflBo5ng-24" value="" style="rounded=0;whiteSpace=wrap;html=1;" vertex="1" parent="1">
          <mxGeometry x="1240" y="1340" width="120" height="60" as="geometry" />
        </mxCell>
        <mxCell id="ehExk4k6lZcWpflBo5ng-25" value="&lt;b style=&quot;font-size: 10px&quot;&gt;&lt;font style=&quot;font-size: 11px&quot;&gt;Доставить заказ&lt;/font&gt;&lt;/b&gt;" style="text;html=1;strokeColor=none;fillColor=none;align=center;verticalAlign=middle;whiteSpace=wrap;rounded=0;fontSize=7;" vertex="1" parent="1">
          <mxGeometry x="1250" y="1355" width="100" height="30" as="geometry" />
        </mxCell>
        <mxCell id="ehExk4k6lZcWpflBo5ng-1" value="" style="rounded=0;whiteSpace=wrap;html=1;" vertex="1" parent="1">
          <mxGeometry x="460" y="150" width="120" height="60" as="geometry" />
        </mxCell>
        <mxCell id="_RV6bXpBdhq5zvl98dlv-1" value="&lt;font style=&quot;font-size: 12px&quot;&gt;&lt;b&gt;Консультация по&amp;nbsp;проекту&lt;/b&gt;&lt;/font&gt;" style="text;html=1;strokeColor=none;fillColor=none;align=center;verticalAlign=middle;whiteSpace=wrap;rounded=0;fontSize=7;" parent="1" vertex="1">
          <mxGeometry x="470" y="165" width="100" height="30" as="geometry" />
        </mxCell>
        <mxCell id="ehExk4k6lZcWpflBo5ng-26" value="" style="endArrow=none;html=1;rounded=0;entryX=0.5;entryY=1;entryDx=0;entryDy=0;exitX=1.1;exitY=0.738;exitDx=0;exitDy=0;exitPerimeter=0;edgeStyle=isometricEdgeStyle;" edge="1" parent="1" source="7baba1c4bc27f4b0-10" target="ehExk4k6lZcWpflBo5ng-1">
          <mxGeometry width="50" height="50" relative="1" as="geometry">
            <mxPoint x="300" y="400" as="sourcePoint" />
            <mxPoint x="350" y="350" as="targetPoint" />
          </mxGeometry>
        </mxCell>
        <mxCell id="ehExk4k6lZcWpflBo5ng-27" value="" style="endArrow=none;html=1;rounded=0;exitX=-0.25;exitY=0.557;exitDx=0;exitDy=0;exitPerimeter=0;entryX=0.5;entryY=1;entryDx=0;entryDy=0;edgeStyle=isometricEdgeStyle;" edge="1" parent="1" source="nSxy3bsyDPYAtTU6iTXX-32" target="ehExk4k6lZcWpflBo5ng-2">
          <mxGeometry width="50" height="50" relative="1" as="geometry">
            <mxPoint x="300" y="410" as="sourcePoint" />
            <mxPoint x="350" y="360" as="targetPoint" />
            <Array as="points">
              <mxPoint x="110" y="300" />
            </Array>
          </mxGeometry>
        </mxCell>
        <mxCell id="ehExk4k6lZcWpflBo5ng-28" value="" style="endArrow=none;html=1;rounded=0;entryX=0.5;entryY=1;entryDx=0;entryDy=0;exitX=1.05;exitY=0.725;exitDx=0;exitDy=0;exitPerimeter=0;edgeStyle=isometricEdgeStyle;" edge="1" parent="1" source="7baba1c4bc27f4b0-13" target="ehExk4k6lZcWpflBo5ng-4">
          <mxGeometry width="50" height="50" relative="1" as="geometry">
            <mxPoint x="430" y="420" as="sourcePoint" />
            <mxPoint x="480" y="370" as="targetPoint" />
          </mxGeometry>
        </mxCell>
        <mxCell id="ehExk4k6lZcWpflBo5ng-29" value="" style="endArrow=none;html=1;rounded=0;entryX=0.5;entryY=0;entryDx=0;entryDy=0;exitX=0.933;exitY=0.514;exitDx=0;exitDy=0;exitPerimeter=0;edgeStyle=isometricEdgeStyle;elbow=vertical;" edge="1" parent="1" source="nSxy3bsyDPYAtTU6iTXX-52" target="ehExk4k6lZcWpflBo5ng-6">
          <mxGeometry width="50" height="50" relative="1" as="geometry">
            <mxPoint x="430" y="530" as="sourcePoint" />
            <mxPoint x="480" y="480" as="targetPoint" />
          </mxGeometry>
        </mxCell>
        <mxCell id="ehExk4k6lZcWpflBo5ng-30" value="" style="endArrow=none;html=1;rounded=0;entryX=0.5;entryY=0;entryDx=0;entryDy=0;exitX=1.25;exitY=0.433;exitDx=0;exitDy=0;exitPerimeter=0;edgeStyle=isometricEdgeStyle;elbow=vertical;" edge="1" parent="1" source="nSxy3bsyDPYAtTU6iTXX-43" target="ehExk4k6lZcWpflBo5ng-8">
          <mxGeometry width="50" height="50" relative="1" as="geometry">
            <mxPoint x="430" y="540" as="sourcePoint" />
            <mxPoint x="480" y="490" as="targetPoint" />
          </mxGeometry>
        </mxCell>
        <mxCell id="ehExk4k6lZcWpflBo5ng-31" value="" style="rounded=0;whiteSpace=wrap;html=1;" vertex="1" parent="1">
          <mxGeometry x="-20" y="480" width="120" height="60" as="geometry" />
        </mxCell>
        <mxCell id="ehExk4k6lZcWpflBo5ng-32" value="&lt;b style=&quot;font-size: 11px&quot;&gt;Получить скидку&lt;/b&gt;" style="text;html=1;strokeColor=none;fillColor=none;align=center;verticalAlign=middle;whiteSpace=wrap;rounded=0;fontSize=7;" vertex="1" parent="1">
          <mxGeometry x="-10" y="495" width="100" height="30" as="geometry" />
        </mxCell>
        <mxCell id="ehExk4k6lZcWpflBo5ng-33" value="" style="rounded=0;whiteSpace=wrap;html=1;" vertex="1" parent="1">
          <mxGeometry x="-30" y="610" width="120" height="60" as="geometry" />
        </mxCell>
        <mxCell id="ehExk4k6lZcWpflBo5ng-34" value="&lt;b style=&quot;font-size: 12px&quot;&gt;Оплатить заказ&lt;/b&gt;" style="text;html=1;strokeColor=none;fillColor=none;align=center;verticalAlign=middle;whiteSpace=wrap;rounded=0;fontSize=7;" vertex="1" parent="1">
          <mxGeometry x="-20" y="625" width="100" height="30" as="geometry" />
        </mxCell>
        <mxCell id="ehExk4k6lZcWpflBo5ng-35" value="" style="endArrow=none;html=1;rounded=0;elbow=vertical;entryX=-0.25;entryY=0.58;entryDx=0;entryDy=0;entryPerimeter=0;exitX=1;exitY=0.5;exitDx=0;exitDy=0;edgeStyle=isometricEdgeStyle;" edge="1" parent="1" source="ehExk4k6lZcWpflBo5ng-31" target="7baba1c4bc27f4b0-9">
          <mxGeometry width="50" height="50" relative="1" as="geometry">
            <mxPoint x="140" y="550" as="sourcePoint" />
            <mxPoint x="190" y="500" as="targetPoint" />
          </mxGeometry>
        </mxCell>
        <mxCell id="ehExk4k6lZcWpflBo5ng-36" value="" style="endArrow=none;html=1;rounded=0;elbow=vertical;entryX=0.05;entryY=0.55;entryDx=0;entryDy=0;entryPerimeter=0;exitX=1;exitY=0.5;exitDx=0;exitDy=0;edgeStyle=isometricEdgeStyle;" edge="1" parent="1" source="ehExk4k6lZcWpflBo5ng-33" target="nSxy3bsyDPYAtTU6iTXX-46">
          <mxGeometry width="50" height="50" relative="1" as="geometry">
            <mxPoint x="140" y="560" as="sourcePoint" />
            <mxPoint x="190" y="510" as="targetPoint" />
          </mxGeometry>
        </mxCell>
        <mxCell id="ehExk4k6lZcWpflBo5ng-37" value="" style="endArrow=none;html=1;rounded=0;entryX=-0.15;entryY=0.45;entryDx=0;entryDy=0;entryPerimeter=0;exitX=1;exitY=1;exitDx=0;exitDy=0;edgeStyle=isometricEdgeStyle;" edge="1" parent="1" source="ehExk4k6lZcWpflBo5ng-10" target="nSxy3bsyDPYAtTU6iTXX-71">
          <mxGeometry width="50" height="50" relative="1" as="geometry">
            <mxPoint x="510" y="570" as="sourcePoint" />
            <mxPoint x="560" y="520" as="targetPoint" />
          </mxGeometry>
        </mxCell>
        <mxCell id="ehExk4k6lZcWpflBo5ng-39" value="" style="endArrow=none;html=1;rounded=0;entryX=0.5;entryY=1;entryDx=0;entryDy=0;exitX=1.2;exitY=0.74;exitDx=0;exitDy=0;exitPerimeter=0;edgeStyle=isometricEdgeStyle;" edge="1" parent="1" source="nSxy3bsyDPYAtTU6iTXX-75" target="ehExk4k6lZcWpflBo5ng-12">
          <mxGeometry width="50" height="50" relative="1" as="geometry">
            <mxPoint x="710" y="780" as="sourcePoint" />
            <mxPoint x="760" y="730" as="targetPoint" />
          </mxGeometry>
        </mxCell>
        <mxCell id="ehExk4k6lZcWpflBo5ng-40" value="" style="endArrow=none;html=1;rounded=0;entryX=0.2;entryY=0.68;entryDx=0;entryDy=0;entryPerimeter=0;exitX=1;exitY=0.5;exitDx=0;exitDy=0;edgeStyle=isometricEdgeStyle;elbow=vertical;" edge="1" parent="1" source="ehExk4k6lZcWpflBo5ng-14" target="KT-1wL77twykIDQ50p4O-12">
          <mxGeometry width="50" height="50" relative="1" as="geometry">
            <mxPoint x="710" y="790" as="sourcePoint" />
            <mxPoint x="760" y="740" as="targetPoint" />
          </mxGeometry>
        </mxCell>
        <mxCell id="ehExk4k6lZcWpflBo5ng-41" value="" style="endArrow=none;html=1;rounded=0;entryX=0.2;entryY=0.511;entryDx=0;entryDy=0;entryPerimeter=0;exitX=1;exitY=0.5;exitDx=0;exitDy=0;edgeStyle=isometricEdgeStyle;" edge="1" parent="1" source="ehExk4k6lZcWpflBo5ng-16" target="nSxy3bsyDPYAtTU6iTXX-22">
          <mxGeometry width="50" height="50" relative="1" as="geometry">
            <mxPoint x="710" y="1000" as="sourcePoint" />
            <mxPoint x="760" y="950" as="targetPoint" />
          </mxGeometry>
        </mxCell>
        <mxCell id="ehExk4k6lZcWpflBo5ng-43" value="" style="endArrow=none;html=1;rounded=0;entryX=0;entryY=0.5;entryDx=0;entryDy=0;edgeStyle=isometricEdgeStyle;" edge="1" parent="1" source="7baba1c4bc27f4b0-19" target="ehExk4k6lZcWpflBo5ng-18">
          <mxGeometry width="50" height="50" relative="1" as="geometry">
            <mxPoint x="970" y="1010" as="sourcePoint" />
            <mxPoint x="1020" y="960" as="targetPoint" />
          </mxGeometry>
        </mxCell>
        <mxCell id="ehExk4k6lZcWpflBo5ng-44" value="" style="endArrow=none;html=1;rounded=0;exitX=0.2;exitY=0.534;exitDx=0;exitDy=0;exitPerimeter=0;entryX=1;entryY=0.5;entryDx=0;entryDy=0;edgeStyle=isometricEdgeStyle;elbow=vertical;" edge="1" parent="1" source="KT-1wL77twykIDQ50p4O-21" target="ehExk4k6lZcWpflBo5ng-20">
          <mxGeometry width="50" height="50" relative="1" as="geometry">
            <mxPoint x="970" y="1020" as="sourcePoint" />
            <mxPoint x="1020" y="970" as="targetPoint" />
          </mxGeometry>
        </mxCell>
        <mxCell id="ehExk4k6lZcWpflBo5ng-45" value="" style="endArrow=none;html=1;rounded=0;entryX=0;entryY=0.5;entryDx=0;entryDy=0;exitX=1;exitY=0.655;exitDx=0;exitDy=0;exitPerimeter=0;edgeStyle=isometricEdgeStyle;" edge="1" parent="1" source="KT-1wL77twykIDQ50p4O-25" target="ehExk4k6lZcWpflBo5ng-22">
          <mxGeometry width="50" height="50" relative="1" as="geometry">
            <mxPoint x="1180" y="1330" as="sourcePoint" />
            <mxPoint x="1230" y="1280" as="targetPoint" />
          </mxGeometry>
        </mxCell>
        <mxCell id="ehExk4k6lZcWpflBo5ng-46" value="" style="endArrow=none;html=1;rounded=0;entryX=0;entryY=0.5;entryDx=0;entryDy=0;edgeStyle=isometricEdgeStyle;" edge="1" parent="1" source="KT-1wL77twykIDQ50p4O-28" target="ehExk4k6lZcWpflBo5ng-24">
          <mxGeometry width="50" height="50" relative="1" as="geometry">
            <mxPoint x="1180" y="1340" as="sourcePoint" />
            <mxPoint x="1230" y="1290" as="targetPoint" />
          </mxGeometry>
        </mxCell>
      </root>
    </mxGraphModel>
  </diagram>
</mxfile>
